<svg xmlns="http://www.w3.org/2000/svg" width="154.322" height="55.161" viewBox="0 0 154.322 55.161">
  <g id="Group_703" data-name="Group 703" transform="translate(-1444 -775.839)">
    <path id="Icon_material-control-point" data-name="Icon material-control-point" d="M19.5,10.5h-3v6h-6v3h6v6h3v-6h6v-3h-6ZM18,3A15,15,0,1,0,33,18,15.025,15.025,0,0,0,18,3Zm0,27A12,12,0,1,1,30,18,12.016,12.016,0,0,1,18,30Z" transform="translate(1441 798)" fill="#e5a686"/>
    <path id="Path_1542" data-name="Path 1542" d="M4256,242h124.322" transform="translate(-2782 574)" fill="none" stroke="#e5a686" stroke-width="2"/>
    <path id="Path_1540" data-name="Path 1540" d="M4256,242h25.976" transform="translate(1217.161 5057.815) rotate(-90)" fill="none" stroke="#e5a686" stroke-width="3"/>
  </g>
</svg>
