<svg xmlns="http://www.w3.org/2000/svg" width="26.999" height="36.001" viewBox="0 0 26.999 36.001">
  <path id="Icon_awesome-hiking" data-name="Icon awesome-hiking" d="M5.692,33.2A2.25,2.25,0,0,0,10.058,34.3l1.775-7.1L8.122,23.485,5.692,33.2Zm1.047-13.79L9.633,8.227a1.1,1.1,0,0,0-.838-1.34,5.78,5.78,0,0,0-6.983,4.02l-1.777,6.9a1.1,1.1,0,0,0,.838,1.34l4.469,1.072a1.156,1.156,0,0,0,1.4-.8ZM25.875,11.25H24.75a1.125,1.125,0,0,0-1.125,1.125V13.5H21.182l-3.289-3.289a4.133,4.133,0,0,0-6.932,1.92L9.067,19.7a2.251,2.251,0,0,0,.592,2.137l6.09,6.09V33.75a2.25,2.25,0,0,0,4.5,0V27.932a4.47,4.47,0,0,0-1.318-3.182L15.64,21.458c.011-.035.034-.063.044-.1l1.4-5.595,1.577,1.577a2.25,2.25,0,0,0,1.59.66h3.375V34.876A1.125,1.125,0,0,0,24.749,36h1.125A1.125,1.125,0,0,0,27,34.876v-22.5a1.124,1.124,0,0,0-1.124-1.125Zm-9-4.5A3.375,3.375,0,1,0,13.5,3.375,3.375,3.375,0,0,0,16.875,6.75Z" transform="translate(0)" fill="#bfbfbf"/>
</svg>
